<?xml version="1.0" encoding="iso-8859-1"?>
<!-- Generator: Adobe Illustrator 18.0.0, SVG Export Plug-In . SVG Version: 6.00 Build 0)  -->
<!DOCTYPE svg PUBLIC "-//W3C//DTD SVG 1.1//EN" "http://www.w3.org/Graphics/SVG/1.1/DTD/svg11.dtd">
<svg version="1.1" id="Capa_1" xmlns="http://www.w3.org/2000/svg" xmlns:xlink="http://www.w3.org/1999/xlink" x="0px" y="0px"
	 viewBox="0 0 458.534 458.534" style="enable-background:new 0 0 458.534 458.534;" xml:space="preserve">
<g id="XMLID_474_">
	<path id="XMLID_783_" d="M182.541,312.391c-7.036,7.735-6.469,19.709,1.266,26.744c7.739,7.039,19.71,6.466,26.744-1.265
		l14.759-16.225l-31.971-21.124L182.541,312.391z"/>
	<path id="XMLID_952_" d="M376.446,8.5h-52.734c-2.306-5.033-7.386-8.5-13.231-8.5c-0.146,0-0.294,0.003-0.442,0.007
		c-5.718,0.171-10.553,3.625-12.79,8.493h-50.265c-5.111-3.309-11.199-5.238-17.741-5.238c-6.542,0-12.63,1.929-17.741,5.238
		h-50.217c-2.236-4.869-7.071-8.323-12.79-8.493c-6.032-0.183-11.314,3.332-13.678,8.493H82.088c-6.845,0-12.395,5.55-12.395,12.395
		v437.639h24.79V33.29h38.452l-1.542,51.63c-0.236,7.893,5.864,14.536,13.748,14.973l42.148,2.334v94.761
		c-13.073,17.591-15.548,20.921-28.254,38.017c-3.104,4.176-4.352,9.444-3.451,14.569c0.9,5.124,3.869,9.652,8.21,12.52
		l81.791,54.042c8.732,5.767,20.472,3.359,26.233-5.359c5.764-8.724,3.364-20.468-5.359-26.233l-65.098-43.012
		c11.716-15.765,5.603-7.539,23.107-31.092h8.673l8.207,37.304l-0.741,0.814l31.971,21.124l3.369-3.703
		c4.133-4.544,5.805-10.81,4.485-16.808l-9.576-43.526V102.249l42.537-2.355c7.885-0.437,13.984-7.08,13.749-14.973L325.6,33.29
		h38.452v425.244h24.79V20.895C388.841,14.05,383.292,8.5,376.446,8.5z M297.611,71.602l-47.103,3.422h-42.482l-47.103-3.422
		l1.144-38.312h34.596c-0.071,0.881-0.118,1.77-0.118,2.67c0,18.059,14.639,32.698,32.698,32.698
		c18.058,0,32.697-14.639,32.697-32.698c0-0.9-0.046-1.788-0.117-2.67h34.643L297.611,71.602z"/>
</g>
<g>
</g>
<g>
</g>
<g>
</g>
<g>
</g>
<g>
</g>
<g>
</g>
<g>
</g>
<g>
</g>
<g>
</g>
<g>
</g>
<g>
</g>
<g>
</g>
<g>
</g>
<g>
</g>
<g>
</g>
</svg>
