<!--?xml version="1.0" standalone="no"?-->

<svg version="1.0" xmlns="http://www.w3.org/2000/svg" width="300.000000pt" height="300.000000pt" viewBox="0 0 300.000000 300.000000" preserveAspectRatio="xMidYMid meet">
<g transform="translate(0.000000,300.000000) scale(0.100000,-0.100000)" fill="#070707" stroke="none">
<path class="node" id="node1" d="M493 2663 c-10 -3 -13 -47 -13 -170 0 -127 -3 -164 -12 -161 -9 3
-14 38 -16 116 l-3 112 -44 0 -44 0 -3 -112 -3 -113 -62 -3 c-62 -3 -63 -3
-63 -32 l0 -30 65 0 65 0 0 -115 0 -115 45 0 44 0 3 112 c2 77 7 113 15 115
10 4 13 -36 15 -164 l3 -168 45 0 45 0 3 168 c2 137 5 167 17 167 18 0 16 58
-2 65 -10 3 -13 44 -13 154 0 82 -3 156 -6 165 -6 16 -53 21 -81 9z"></path>
<path class="node" id="node2" d="M2447 2663 c-4 -3 -7 -77 -7 -164 0 -87 -4 -160 -9 -163 -15 -10 -19
-66 -5 -66 11 0 14 -38 16 -167 l3 -168 42 -3 43 -3 2 167 c2 123 6 168 16
172 9 3 12 -24 12 -113 l0 -116 48 3 47 3 3 113 3 112 59 0 c60 0 60 0 60 30
0 28 -1 29 -57 32 l-58 3 -5 110 -5 110 -45 0 -45 0 -3 -113 c-2 -84 -6 -112
-15 -109 -9 3 -13 50 -15 170 l-2 167 -39 0 c-21 0 -41 -3 -44 -7z"></path>
<path class="node" id="node3" d="M690 2403 c-50 -26 -62 -55 -55 -133 15 -155 64 -324 122 -422 30
-51 95 -106 153 -131 8 -4 67 -37 130 -74 l115 -68 3 -237 2 -236 -39 -29
c-22 -15 -84 -55 -138 -88 -205 -126 -218 -154 -218 -472 0 -198 1 -213 21
-240 49 -67 136 -77 198 -22 l31 27 1 194 c1 106 5 203 10 215 6 13 71 62 159
118 l150 96 75 -4 c41 -3 137 -1 213 5 l137 9 75 -48 c42 -26 112 -71 156 -99
45 -28 86 -59 92 -70 8 -12 12 -88 12 -211 0 -179 1 -193 21 -220 13 -18 38
-33 68 -41 42 -12 51 -11 83 5 63 31 74 57 84 189 8 123 -2 293 -21 366 -17
62 -51 106 -117 148 -32 20 -127 81 -210 135 l-153 97 0 202 0 202 173 99 c94
54 186 113 204 130 60 61 111 193 143 369 27 151 26 179 -8 218 -25 27 -36 31
-75 31 -75 0 -93 -23 -128 -168 -21 -84 -36 -127 -72 -209 -22 -49 -23 -50
-162 -116 l-140 -67 -18 -58 c-22 -72 -63 -125 -125 -161 -42 -26 -56 -28
-142 -29 -94 0 -95 0 -155 40 -46 31 -66 54 -91 100 -18 33 -33 73 -33 88 -1
26 -11 33 -125 87 -131 63 -148 78 -180 160 -25 63 -62 187 -70 236 -14 78
-89 120 -156 87z"></path>
<path class="node" id="node4" d="M874 2308 c3 -13 6 -26 6 -30 0 -5 283 -8 629 -8 l629 0 11 30 10 30
-646 0 -645 0 6 -22z"></path>
<path class="node" id="node5" d="M1418 2120 c-96 -29 -170 -133 -172 -240 -2 -158 150 -284 304 -251
96 21 162 81 194 175 21 65 20 94 -5 160 -24 65 -100 140 -157 156 -43 12
-125 12 -164 0z"></path>
</g>
<g transform="translate(0.000000,300.000000) scale(0.100000,-0.100000)" fill="#A2A2A2" stroke="none">

</g>
</svg>