<?xml version="1.0" encoding="iso-8859-1"?>
<!-- Generator: Adobe Illustrator 19.0.0, SVG Export Plug-In . SVG Version: 6.00 Build 0)  -->
<svg version="1.1" id="Layer_1" xmlns="http://www.w3.org/2000/svg" xmlns:xlink="http://www.w3.org/1999/xlink" x="0px" y="0px"
	 viewBox="0 0 512 512" style="enable-background:new 0 0 512 512;" xml:space="preserve">
<g transform="translate(-1)">
	<g>
		<g>
			<path d="M453.267,352.19H138.745l22.758-170.667h5.444c16.06,0,31.863-6.81,44.501-19.183
				c5.077-4.958,11.315-8.764,18.039-11.017c7.859-2.611,16.026-3.934,24.286-3.934h26.359c10.769,0,19.533-8.764,19.533-19.533
				v-12.134c0-10.769-8.764-19.533-19.533-19.533H178.527c-6.033,0-11.571-3.541-14.071-8.969l-31.548-69.598
				c-2.202-4.847-6.187-8.499-11.196-10.283c-5.018-1.783-10.411-1.451-15.172,0.939l-14.746,7.373
				c-9.284,4.642-13.269,15.718-9.079,25.207l28.689,64.922l-16.23,64.956c0,0-0.008,0-0.008,0.008L64.3,283.923h39.1
				c4.719,0,8.533,3.823,8.533,8.533c0,4.71-3.814,8.533-8.533,8.533H59.65l-4.659,17.067h39.876c4.719,0,8.533,3.823,8.533,8.533
				s-3.814,8.533-8.533,8.533H50.331l-5.239,19.217C19.731,361.235,1,384.403,1,411.923c0,32.939,26.803,59.733,59.733,59.733
				h392.533c32.93,0,59.733-26.795,59.733-59.733C513,378.985,486.197,352.19,453.267,352.19z M60.733,454.59
				c-23.526,0-42.667-19.14-42.667-42.667c0-23.526,19.14-42.667,42.667-42.667c23.526,0,42.667,19.14,42.667,42.667
				C103.4,435.45,84.26,454.59,60.733,454.59z M163.133,420.457h-17.067c-4.719,0-8.533-3.823-8.533-8.533
				c0-4.71,3.814-8.533,8.533-8.533h17.067c4.719,0,8.533,3.823,8.533,8.533C171.667,416.634,167.852,420.457,163.133,420.457z
				 M214.333,420.457h-17.067c-4.719,0-8.533-3.823-8.533-8.533c0-4.71,3.814-8.533,8.533-8.533h17.067
				c4.719,0,8.533,3.823,8.533,8.533C222.867,416.634,219.052,420.457,214.333,420.457z M265.533,420.457h-17.067
				c-4.719,0-8.533-3.823-8.533-8.533c0-4.71,3.814-8.533,8.533-8.533h17.067c4.719,0,8.533,3.823,8.533,8.533
				C274.067,416.634,270.252,420.457,265.533,420.457z M316.733,420.457h-17.067c-4.719,0-8.533-3.823-8.533-8.533
				c0-4.71,3.814-8.533,8.533-8.533h17.067c4.719,0,8.533,3.823,8.533,8.533C325.267,416.634,321.452,420.457,316.733,420.457z
				 M367.933,420.457h-17.067c-4.719,0-8.533-3.823-8.533-8.533c0-4.71,3.814-8.533,8.533-8.533h17.067
				c4.719,0,8.533,3.823,8.533,8.533C376.467,416.634,372.652,420.457,367.933,420.457z M453.267,454.59
				c-23.526,0-42.667-19.14-42.667-42.667c0-23.526,19.14-42.667,42.667-42.667c23.526,0,42.667,19.14,42.667,42.667
				C495.933,435.45,476.793,454.59,453.267,454.59z"/>
			<path d="M69.267,497.257c0,4.702,3.823,8.533,8.533,8.533h93.867c4.71,0,8.533-3.831,8.533-8.533v-8.533H69.267V497.257z"/>
			<path d="M393.533,497.573c0,4.531,3.686,8.218,8.218,8.218h34.765c4.531,0,8.218-3.686,8.218-8.218v-8.849h-51.2V497.573z"/>
		</g>
	</g>
</g>
<g>
</g>
<g>
</g>
<g>
</g>
<g>
</g>
<g>
</g>
<g>
</g>
<g>
</g>
<g>
</g>
<g>
</g>
<g>
</g>
<g>
</g>
<g>
</g>
<g>
</g>
<g>
</g>
<g>
</g>
</svg>
