<?xml version="1.0" encoding="iso-8859-1"?>
<!-- Generator: Adobe Illustrator 19.0.0, SVG Export Plug-In . SVG Version: 6.00 Build 0)  -->
<svg version="1.1" id="Layer_1" xmlns="http://www.w3.org/2000/svg" xmlns:xlink="http://www.w3.org/1999/xlink" x="0px" y="0px"
	 viewBox="0 0 512 512" style="enable-background:new 0 0 512 512;" xml:space="preserve">
<path style="fill:#C6C5CA;" d="M306.297,318.011c-3.148,0-6.299-0.887-9.065-2.672l-41.234-26.618l-41.235,26.618
	c-5.771,3.725-13.232,3.54-18.809-0.462l-58.756-42.161H16.715C7.484,272.716,0,265.232,0,256.001
	c0-9.231,7.484-16.715,16.715-16.715h125.861c3.497,0,6.904,1.096,9.745,3.135l53.878,38.66l40.738-26.298
	c5.52-3.561,12.614-3.562,18.131,0l40.737,26.298l53.878-38.66c2.84-2.038,6.248-3.135,9.745-3.135h125.861
	c9.231,0,16.715,7.484,16.715,16.715c0,9.231-7.484,16.715-16.715,16.715H374.8l-58.756,42.161
	C313.137,316.961,309.721,318.011,306.297,318.011z"/>
<path style="fill:#ACABB1;" d="M495.285,239.285H369.424c-3.497,0-6.904,1.096-9.745,3.135l-53.878,38.66l-40.737-26.298
	c-2.759-1.782-5.913-2.672-9.065-2.672v36.609l41.234,26.617c2.765,1.785,5.917,2.672,9.065,2.672c3.422,0,6.84-1.049,9.746-3.135
	l58.756-42.161h120.485c9.231,0,16.715-7.484,16.715-16.715S504.516,239.285,495.285,239.285z"/>
<path style="fill:#787680;" d="M86.906,181.952H42.893c-9.231,0-16.715,7.484-16.715,16.715v114.666
	c0,9.231,7.484,16.715,16.715,16.715h44.013c9.231,0,16.715-7.484,16.715-16.715V198.667
	C103.62,189.436,96.137,181.952,86.906,181.952z"/>
<path style="fill:#57565C;" d="M469.107,181.952h-44.013c-9.231,0-16.715,7.484-16.715,16.715v114.666
	c0,9.231,7.484,16.715,16.715,16.715h44.013c9.231,0,16.715-7.484,16.715-16.715V198.667
	C485.822,189.436,478.338,181.952,469.107,181.952z"/>
<g>
</g>
<g>
</g>
<g>
</g>
<g>
</g>
<g>
</g>
<g>
</g>
<g>
</g>
<g>
</g>
<g>
</g>
<g>
</g>
<g>
</g>
<g>
</g>
<g>
</g>
<g>
</g>
<g>
</g>
</svg>
